<svg height="495pt" viewBox="-55 0 495 495.89057" width="495pt" xmlns="http://www.w3.org/2000/svg"><path d="m192.445312 7.890625s-184 194.398437-184 296c0 101.621094 82.378907 184 184 184 101.621094 0 184-82.378906 184-184 0-101.601563-184-296-184-296zm0 0" fill="#57a4ff"/><g fill="#004fac"><path d="m192.445312 495.890625c-105.988281-.125-191.875-86.011719-192-192 0-103.609375 178.582032-293.472656 186.183594-301.503906 3.226563-3.183594 8.40625-3.183594 11.632813 0 7.597656 8.03125 186.183593 197.894531 186.183593 301.503906-.125 105.988281-86.011718 191.875-192 192zm0-476.222656c-31.089843 33.949219-176 196.941406-176 284.222656 0 97.203125 78.796876 176 176 176 97.203126 0 176-78.796875 176-176 0-87.3125-144.910156-250.273437-176-284.222656zm0 0"/><path d="m192.445312 463.890625c-88.324218-.101563-159.898437-71.675781-160-160 0-4.417969 3.582032-8 8-8 4.417969 0 8 3.582031 8 8 .09375 79.492187 64.507813 143.90625 144 144 4.417969 0 8 3.582031 8 8s-3.582031 8-8 8zm0 0"/></g></svg>