<svg height="512" viewBox="0 0 512 512" width="512" xmlns="http://www.w3.org/2000/svg"><g><g fill="#57a4ff"><path d="m352 16a144 144 0 1 0 144 144 144 144 0 0 0 -144-144zm0 248a104 104 0 1 1 104-104 104 104 0 0 1 -104 104z"/><path d="m290.01 290.01-68.02-68.02a143.9 143.9 0 1 0 68.02 68.02zm-130.01 165.99a104 104 0 1 1 104-104 104 104 0 0 1 -104 104z"/></g><g fill="#004fac"><path d="m352 8c-83.81 0-152 68.19-152 152a151.244 151.244 0 0 0 7.65 47.62 151.242 151.242 0 0 0 -47.65-7.62c-83.81 0-152 68.19-152 152s68.19 152 152 152 152-68.19 152-152a151.242 151.242 0 0 0 -7.62-47.65 151.244 151.244 0 0 0 47.62 7.65c83.81 0 152-68.19 152-152s-68.19-152-152-152zm-192 480c-74.99 0-136-61.01-136-136s61.01-136 136-136a134.857 134.857 0 0 1 56.14 12.1 153.015 153.015 0 0 0 67.76 67.76 134.857 134.857 0 0 1 12.1 56.14c0 74.99-61.01 136-136 136zm192-192c-74.99 0-136-61.01-136-136s61.01-136 136-136 136 61.01 136 136-61.01 136-136 136z"/><path d="m352 48a112 112 0 1 0 112 112 112.123 112.123 0 0 0 -112-112zm0 208a96 96 0 1 1 96-96 96.115 96.115 0 0 1 -96 96z"/><path d="m160 240a112 112 0 1 0 112 112 112.123 112.123 0 0 0 -112-112zm0 208a96 96 0 1 1 96-96 96.115 96.115 0 0 1 -96 96z"/><path d="m392 200a8 8 0 0 1 -8 8h-32a32.058 32.058 0 0 1 -30.99-24h-1.01a8 8 0 0 1 0-16v-8a8 8 0 0 1 0-16h1.01a32.058 32.058 0 0 1 30.99-24h32a8 8 0 0 1 0 16h-32a15.991 15.991 0 0 0 -13.83 8h29.83a8 8 0 0 1 0 16h-32v8h32a8 8 0 0 1 0 16h-29.83a15.991 15.991 0 0 0 13.83 8h32a8 8 0 0 1 8 8z"/><path d="m192 368a24.032 24.032 0 0 1 -24 24 8 8 0 0 1 -16 0h-8a8 8 0 0 1 0-16h24a8 8 0 1 0 0-16h-8a24 24 0 0 1 -8-46.62v-.38a8 8 0 0 1 15.93-1h8.07a8 8 0 0 1 0 16h-16a8 8 0 1 0 0 16h8a23.968 23.968 0 0 1 24 24z"/><path d="m442.29 303.354a8 8 0 0 0 -9.955 5.376 184.43 184.43 0 0 1 -122.665 123.322 8 8 0 1 0 4.66 15.306 200.435 200.435 0 0 0 133.337-134.049 8 8 0 0 0 -5.377-9.955z"/><path d="m68.055 215.748a7.992 7.992 0 0 0 9.741-5.754 183.835 183.835 0 0 1 132.2-132.2 8 8 0 0 0 -3.988-15.5 199.834 199.834 0 0 0 -143.7 143.7 8 8 0 0 0 5.747 9.754z"/></g></g></svg>