<svg height="512" viewBox="0 0 512 512" width="512" xmlns="http://www.w3.org/2000/svg"><g><g fill="#57a4ff"><path d="m452 104h-28v-40h-336v40h-28a19.994 19.994 0 0 0 -20 20v268h168l8 32h80l8-32h168v-268a19.994 19.994 0 0 0 -20-20zm-300-16h208a40 40 0 0 0 40 40v64a40 40 0 0 0 -40 40h-208a40 40 0 0 0 -40-40v-64a40 40 0 0 0 40-40zm296 280h-384v-240h24v128h336v-128h24z"/><path d="m256 200a40 40 0 1 0 -40-40 40 40 0 0 0 40 40z"/></g><g fill="#004fac"><path d="m496 384h-16v-260a28.031 28.031 0 0 0 -28-28h-20v-32a8 8 0 0 0 -8-8h-336a8 8 0 0 0 -8 8v32h-20a28.031 28.031 0 0 0 -28 28v260h-16a8 8 0 0 0 -8 8v36a28.031 28.031 0 0 0 28 28h440a28.031 28.031 0 0 0 28-28v-36a8 8 0 0 0 -8-8zm-400-312h320v176h-320zm-8 192h136v48a8 8 0 0 0 16 0v-48h8v48a8 8 0 0 0 16 0v-48h8v32a8 8 0 0 0 16 0v-32h136a8 8 0 0 0 8-8v-120h8v224h-368v-224h8v120a8 8 0 0 0 8 8zm-40-140a12.01 12.01 0 0 1 12-12h20v8h-16a8 8 0 0 0 -8 8v240a8 8 0 0 0 8 8h384a8 8 0 0 0 8-8v-240a8 8 0 0 0 -8-8h-16v-8h20a12.01 12.01 0 0 1 12 12v260h-416zm245.75 276-4 16h-67.5l-4-16zm194.25 28a12.01 12.01 0 0 1 -12 12h-440a12.01 12.01 0 0 1 -12-12v-28h177.75l6.49 25.94a8 8 0 0 0 7.76 6.06h80a8 8 0 0 0 7.76-6.06l6.49-25.94h177.75z"/><path d="m256 112a48 48 0 1 0 48 48 48.054 48.054 0 0 0 -48-48zm0 80a32 32 0 1 1 32-32 32.036 32.036 0 0 1 -32 32z"/><path d="m368 232a32.036 32.036 0 0 1 32-32 8 8 0 0 0 8-8v-64a8 8 0 0 0 -8-8 32.036 32.036 0 0 1 -32-32 8 8 0 0 0 -8-8h-208a8 8 0 0 0 -8 8 32.036 32.036 0 0 1 -32 32 8 8 0 0 0 -8 8v64a8 8 0 0 0 8 8 32.036 32.036 0 0 1 32 32 8 8 0 0 0 8 8h208a8 8 0 0 0 8-8zm-208.667-8a48.125 48.125 0 0 0 -39.333-39.333v-49.334a48.125 48.125 0 0 0 39.333-39.333h193.334a48.125 48.125 0 0 0 39.333 39.333v49.334a48.125 48.125 0 0 0 -39.333 39.333z"/><path d="m256 352a8 8 0 0 0 8-8v-8a8 8 0 0 0 -16 0v8a8 8 0 0 0 8 8z"/></g></g></svg>