<svg height="512" viewBox="0 0 64 64" width="512" xmlns="http://www.w3.org/2000/svg"><path d="m59 33-7-7.26" fill="#57a4ff"/><path d="m12 25.74-7 7.26" fill="#57a4ff"/><path d="m44 9h8v3h-8z" fill="#57a4ff"/><path d="m42.26 26.28a24.264 24.264 0 0 0 -10.26-2.37 24.264 24.264 0 0 0 -10.26 2.37l-1.89.87 1.4 18.58 10.75 6.82 10.75-6.82 1.4-18.58zm-2.38 17.72-7.88 5-7.88-5-1.12-15a20.4 20.4 0 0 1 18 0z" fill="#57a4ff"/><g fill="#004fac"><path d="m52.722 25.048-1.722-1.791v-10.257h1a1 1 0 0 0 1-1v-3a1 1 0 0 0 -1-1h-8a1 1 0 0 0 -1 1v3a1 1 0 0 0 1 1h1v4.042l-12.28-12.736a1 1 0 0 0 -1.44 0l-27 28a1 1 0 0 0 1.44 1.388l5.28-5.476v29.782h-9a1 1 0 0 0 0 2h56a1 1 0 0 0 0-2h-5v-29.782l5.28 5.476a1 1 0 0 0 1.44-1.388zm-7.722-15.048h6v1h-6zm-32 48v-31.858l19-19.702 13.28 13.774a1 1 0 0 0 1.72-.694v-6.52h2v10.66a1 1 0 0 0 .28.694l1.72 1.788v31.858z"/><path d="m62 58h-1a1 1 0 0 0 0 2h1a1 1 0 0 0 0-2z"/><path d="m21 55h-6a1 1 0 0 0 0 2h6a1 1 0 0 0 0-2z"/><path d="m25 55h-1a1 1 0 0 0 0 2h1a1 1 0 0 0 0-2z"/><path d="m44.568 26.247-1.883-.874a24.509 24.509 0 0 0 -21.37 0l-1.883.874a1 1 0 0 0 -.576.982l1.393 18.571a1 1 0 0 0 .461.77l10.754 6.83a1 1 0 0 0 1.072 0l10.754-6.83a1 1 0 0 0 .461-.77l1.393-18.571a1 1 0 0 0 -.576-.982zm-2.774 18.9-9.794 6.222-9.794-6.219-1.306-17.381 1.256-.583a22.509 22.509 0 0 1 19.684 0l1.256.582z"/><path d="m41.421 28.093a21.464 21.464 0 0 0 -18.842 0 1 1 0 0 0 -.576.982l1.125 15a1 1 0 0 0 .461.769l7.875 5a1 1 0 0 0 1.072 0l7.875-5a1 1 0 0 0 .461-.769l1.125-15a1 1 0 0 0 -.576-.982zm-2.505 15.332-6.916 4.39-6.916-4.39-1.034-13.8a19.137 19.137 0 0 1 15.9 0z"/><path d="m28.707 37.293a1 1 0 0 0 -1.414 1.414l2 2a1 1 0 0 0 1.358.052l7-6a1 1 0 1 0 -1.3-1.518l-6.3 5.4z"/></g></svg>